<svg width="172" height="150" viewBox="0 0 172 150" fill="none" xmlns="http://www.w3.org/2000/svg">
<path d="M170.739 74.7941L171.184 74.8082C171.331 76.1225 168.549 80.055 167.814 81.3339L161.691 92.1813C160.699 93.9042 159.86 95.7168 158.875 97.4218C158.211 98.5806 157.091 99.6257 156.476 100.8C150.954 111.35 144.823 121.594 138.696 131.804C137.672 133.51 136.853 135.276 135.896 137.005C134.767 139.043 133.373 140.972 132.3 143.052C131.37 144.742 130.09 147.44 128.973 148.857C128.608 148.936 128.239 148.997 127.867 149.041C126.086 149.259 122.724 149.162 120.827 149.159L108.385 149.14L67.9845 149.151C66.5269 149.153 54.8632 149.294 54.3008 148.86C54.5771 147.315 61.9314 134.118 63.1741 133.995C68.977 133.42 75.5941 133.702 81.4739 133.677L104.911 133.649C109.59 133.648 115.319 133.504 119.911 133.824C121.209 130.111 123.117 127.915 124.964 124.694C128.712 118.158 132.574 110.908 136.471 104.513C139.252 100.037 141.663 95.3979 144.665 90.6819C142.108 90.6496 131.556 90.3632 129.744 90.9442C127.749 93.3184 125.944 97.7682 124.3 100.533C120.754 106.5 116.337 113.215 113.412 119.413C112.159 120.275 110.345 120.892 108.881 120.728C103.844 120.165 73.3136 121.614 70.7883 120.221C70.681 119.293 76.3782 109.34 77.1955 107.632C78.4526 105.006 81.8976 105.461 84.4299 105.476L95.4704 105.596C96.9521 105.615 102.574 105.998 103.408 104.803C106.512 100.35 108.855 95.2955 111.894 90.7671C107.999 90.4113 90.3468 91.1794 88.2396 90.3875L88.1101 90.0484C88.3126 88.4613 90.0709 85.9311 90.8811 84.457C92.8406 80.8913 93.9082 77.7013 96.9185 74.8375C112.417 75.1545 128.622 74.9112 144.17 74.9091L161.112 74.9144C164.04 74.9165 167.931 75.0504 170.739 74.7941Z" fill="#0265C1"/>
<path d="M37.034 10.7489C37.0819 10.7698 37.1311 10.7877 37.1773 10.8117C37.9037 11.189 44.8884 23.9665 45.436 25.4424C43.9594 29.1593 41.6127 32.2892 39.683 35.7636C35.5515 43.2022 31.3222 50.6572 27.0725 58.0324C24.1761 63.0587 19.8459 69.2396 17.3742 74.4098C17.5435 75.2082 18.0712 76.401 18.4861 77.1101C22.972 84.7774 27.4327 92.5541 31.9506 100.187C34.9038 105.177 39.0739 113.765 42.4691 118.024C43.5994 116.174 44.6219 113.865 45.6604 111.91C46.8555 109.659 48.5031 107.173 49.4045 104.841C47.0456 99.5539 43.3371 94.5537 40.6911 89.5136C38.3041 84.9666 34.4876 79.5235 32.5346 75.004C33.1918 71.9888 36.1397 67.7142 37.6957 64.9649C41.4017 58.2734 45.2763 51.6767 49.3159 45.181C50.5505 43.1547 51.7471 40.3669 53.3317 38.789C54.738 41.065 61.232 51.4015 61.5503 53.2406C62.3065 57.613 49.9186 71.3121 50.3769 75.1652C50.5175 76.3478 57.6159 88.5775 58.418 89.2147C59.0612 89.0099 59.1438 88.5805 59.5987 87.8805C62.021 84.2077 63.9355 79.641 66.4346 75.8607C68.0528 73.4131 68.4199 71.434 70.6301 69.0946C72.1071 70.9951 79.0752 82.723 79.6388 84.7584C79.5313 85.0275 79.4142 85.2926 79.2877 85.5532C78.5807 86.9951 76.9964 89.5104 76.1146 91.0391L68.5842 104.108L53.1198 130.931C51.9719 132.933 43.6364 148.251 42.7676 148.546C41.0526 147.955 39.0024 143.03 38.0216 141.328L25.1324 119.096L8.29358 89.8408C6.17638 86.1407 0.887967 78.2925 0 74.5105C0.630369 71.4873 6.19469 62.8795 7.87802 59.9431L25.417 29.7458C27.3616 26.4494 34.8325 12.3441 37.034 10.7489Z" fill="#B9DBFE"/>
<path d="M121.475 0.00349887C123.641 0.182114 125.677 0.108242 127.768 0.238531C131.011 2.05491 131.138 4.82441 132.673 7.4932L139.762 19.6569L157.142 49.7628C158.142 51.4885 165.193 62.7922 165.163 64.249C164.601 64.8894 163.128 64.8359 162.319 64.7897C158.849 64.5913 151.215 65.3956 148.253 64.3244C146.821 63.8064 142.537 55.2461 141.571 53.5542L130.617 34.3921L123.863 22.8567C122.538 20.6134 120.597 17.6564 119.687 15.325L85.9479 15.3623C81.1198 15.3474 74.5576 15.5771 69.9138 15.3157C71.0864 18.1963 75.6544 26.2095 77.5307 28.6677C86.045 29.2187 95.5139 28.6064 104.126 28.8893C113.876 29.2095 111.683 27.4655 116.58 36.217L122.298 46.2255C123.198 47.7947 124.673 49.4625 125.447 50.9757C127.405 54.8001 129.353 58.4884 131.682 62.1143C132.11 62.7807 132.178 63.8428 131.916 64.5947C131.175 64.8979 116.639 64.8911 115.595 64.7173C114.223 63.7555 104.64 46.7064 103.346 43.9575C99.1363 43.6241 90.5832 43.8696 86.0173 43.8647C88.4351 48.7242 91.5855 53.0652 94.1167 57.8586C94.8904 59.3235 97.6235 63.0706 96.975 64.5813C95.6017 64.9715 81.7917 64.9451 79.9815 64.7305C79.4194 64.005 78.5397 62.9523 78.0642 62.1714C70.2868 49.1418 63.0522 35.8732 55.231 22.8545C51.3015 16.3135 45.7603 7.15258 43.0898 0.189778C63.4986 -0.357138 84.2275 0.496765 104.664 0.0620425C110.184 -0.0554731 115.985 0.209151 121.475 0.00349887Z" fill="#1C90FE"/>
</svg>
